<?xml version="1.0" encoding="UTF-8" standalone="no"?>
<!-- Created with Inkscape (http://www.inkscape.org/) -->

<svg
   width="64pt"
   height="64pt"
   viewBox="0 0 22.577778 22.577778"
   version="1.1"
   id="svg831"
   inkscape:version="1.1.1 (3bf5ae0d25, 2021-09-20)"
   sodipodi:docname="EXPORT.svg"
   inkscape:export-filename="C:\Users\User\Desktop\CARLOS PROJECT\5. MAY 1\Done\FiledLine\06 - Boxing Glove.png"
   inkscape:export-xdpi="576"
   inkscape:export-ydpi="576"
   xmlns:inkscape="http://www.inkscape.org/namespaces/inkscape"
   xmlns:sodipodi="http://sodipodi.sourceforge.net/DTD/sodipodi-0.dtd"
   xmlns="http://www.w3.org/2000/svg"
   xmlns:svg="http://www.w3.org/2000/svg"
   xmlns:rdf="http://www.w3.org/1999/02/22-rdf-syntax-ns#"
   xmlns:cc="http://creativecommons.org/ns#"
   xmlns:dc="http://purl.org/dc/elements/1.1/">
  <defs
     id="defs825">
    <pattern
       id="EMFhbasepattern"
       patternUnits="userSpaceOnUse"
       width="6"
       height="6"
       x="0"
       y="0" />
    <pattern
       id="EMFhbasepattern-9"
       patternUnits="userSpaceOnUse"
       width="6"
       height="6"
       x="0"
       y="0" />
    <pattern
       id="EMFhbasepattern-0"
       patternUnits="userSpaceOnUse"
       width="6"
       height="6"
       x="0"
       y="0" />
    <pattern
       id="EMFhbasepattern-7"
       patternUnits="userSpaceOnUse"
       width="6"
       height="6"
       x="0"
       y="0" />
    <pattern
       id="EMFhbasepattern-2"
       patternUnits="userSpaceOnUse"
       width="6"
       height="6"
       x="0"
       y="0" />
    <pattern
       id="EMFhbasepattern-98"
       patternUnits="userSpaceOnUse"
       width="6"
       height="6"
       x="0"
       y="0" />
    <pattern
       id="EMFhbasepattern-6"
       patternUnits="userSpaceOnUse"
       width="6"
       height="6"
       x="0"
       y="0" />
    <pattern
       id="EMFhbasepattern-01"
       patternUnits="userSpaceOnUse"
       width="6"
       height="6"
       x="0"
       y="0" />
    <pattern
       id="EMFhbasepattern-07"
       patternUnits="userSpaceOnUse"
       width="6"
       height="6"
       x="0"
       y="0" />
    <pattern
       id="EMFhbasepattern-8"
       patternUnits="userSpaceOnUse"
       width="6"
       height="6"
       x="0"
       y="0" />
    <pattern
       id="EMFhbasepattern-4"
       patternUnits="userSpaceOnUse"
       width="6"
       height="6"
       x="0"
       y="0" />
    <pattern
       id="EMFhbasepattern-40"
       patternUnits="userSpaceOnUse"
       width="6"
       height="6"
       x="0"
       y="0" />
    <pattern
       id="EMFhbasepattern-08"
       patternUnits="userSpaceOnUse"
       width="6"
       height="6"
       x="0"
       y="0" />
    <pattern
       id="EMFhbasepattern-04"
       patternUnits="userSpaceOnUse"
       width="6"
       height="6"
       x="0"
       y="0" />
    <pattern
       id="EMFhbasepattern-014"
       patternUnits="userSpaceOnUse"
       width="6"
       height="6"
       x="0"
       y="0" />
    <pattern
       id="EMFhbasepattern-27"
       patternUnits="userSpaceOnUse"
       width="6"
       height="6"
       x="0"
       y="0" />
    <pattern
       id="EMFhbasepattern-09"
       patternUnits="userSpaceOnUse"
       width="6"
       height="6"
       x="0"
       y="0" />
    <pattern
       id="EMFhbasepattern-5"
       patternUnits="userSpaceOnUse"
       width="6"
       height="6"
       x="0"
       y="0" />
    <pattern
       id="EMFhbasepattern-018"
       patternUnits="userSpaceOnUse"
       width="6"
       height="6"
       x="0"
       y="0" />
  </defs>
  <sodipodi:namedview
     id="base"
     pagecolor="#ffffff"
     bordercolor="#666666"
     borderopacity="1.0"
     inkscape:pageopacity="0.0"
     inkscape:pageshadow="2"
     inkscape:zoom="9.1757813"
     inkscape:cx="31.822903"
     inkscape:cy="42.666667"
     inkscape:document-units="pt"
     inkscape:current-layer="layer1"
     showgrid="false"
     units="pt"
     inkscape:window-width="1920"
     inkscape:window-height="1001"
     inkscape:window-x="-9"
     inkscape:window-y="-9"
     inkscape:window-maximized="1"
     inkscape:pagecheckerboard="true"
     inkscape:showpageshadow="false"
     inkscape:object-paths="true"
     inkscape:snap-intersection-paths="true"
     inkscape:snap-smooth-nodes="true"
     inkscape:snap-midpoints="true"
     showguides="true"
     inkscape:snap-bbox="true"
     inkscape:bbox-nodes="true"
     inkscape:snap-nodes="false"
     inkscape:snap-global="true">
    <inkscape:grid
       type="xygrid"
       id="grid1378" />
    <sodipodi:guide
       position="0.97013831,21.607643"
       orientation="78.000048,0"
       id="guide1380"
       inkscape:locked="false" />
    <sodipodi:guide
       position="0.97013831,0.97013129"
       orientation="0,78.000005"
       id="guide1382"
       inkscape:locked="false" />
    <sodipodi:guide
       position="21.607639,0.97013129"
       orientation="-78.000048,0"
       id="guide1384"
       inkscape:locked="false" />
    <sodipodi:guide
       position="21.607639,21.607643"
       orientation="0,-78.000005"
       id="guide1386"
       inkscape:locked="false" />
  </sodipodi:namedview>
  <metadata
     id="metadata828">
    <rdf:RDF>
      <cc:Work
         rdf:about="">
        <dc:format>image/svg+xml</dc:format>
        <dc:type
           rdf:resource="http://purl.org/dc/dcmitype/StillImage" />
      </cc:Work>
    </rdf:RDF>
  </metadata>
  <g
     inkscape:label="Icon"
     inkscape:groupmode="layer"
     id="layer1"
     transform="translate(0,-274.42223)">
    <g
       id="g23502"
       style="display:inline;stroke-width:0.795405"
       transform="matrix(1.2572211,0,0,1.2572211,38.99756,-77.036012)">
      <g
         id="g601281"
         style="display:inline;stroke-width:0.795405">
        <path
           style="color:#000000;fill:#a3b9c9;fill-opacity:1;stroke-width:0.795405;stroke-linecap:round;stroke-linejoin:round;-inkscape-stroke:none"
           d="m -19.078125,281.36914 c -0.441987,0 -0.816407,0.35151 -0.816406,0.79297 v 0.67383 a 0.26460996,0.26460996 0 0 0 0.265625,0.26367 h 4.1875 a 0.26460996,0.26460996 0 0 0 0.263672,-0.26367 v -0.67383 c 10e-7,-0.44146 -0.37442,-0.79297 -0.816407,-0.79297 z"
           id="path501701" />
        <path
           style="color:#000000;fill:#c8dae5;stroke-width:0.795405;stroke-linecap:round;stroke-linejoin:round;-inkscape-stroke:none"
           d="m -19.628906,282.57031 a 0.26460996,0.26460996 0 0 0 -0.238281,0.14844 l -1.345704,2.76758 a 0.26460996,0.26460996 0 0 0 0.236329,0.38086 h 2.693359 a 0.26460996,0.26460996 0 0 0 0.238281,-0.38086 l -1.347656,-2.76758 a 0.26460996,0.26460996 0 0 0 -0.236328,-0.14844 z"
           id="path501893" />
        <path
           style="color:#000000;fill:#c8dae5;stroke-width:0.795405;stroke-linecap:round;stroke-linejoin:round;-inkscape-stroke:none"
           d="m -20.976562,285.33789 a 0.26460996,0.26460996 0 0 0 -0.263672,0.26367 v 9.79102 a 0.26460996,0.26460996 0 0 0 0.263672,0.26367 h 2.693359 a 0.26460996,0.26460996 0 0 0 0.263672,-0.26367 v -9.79102 a 0.26460996,0.26460996 0 0 0 -0.263672,-0.26367 z"
           id="path502477" />
        <path
           style="color:#000000;fill:#26783f;stroke-width:0.795405;stroke-linecap:round;stroke-linejoin:round;-inkscape-stroke:none"
           d="m -26.222618,286.34573 c -0.334345,-1.11293 -0.129915,-2.55283 -0.884771,-3.43752 -0.146916,-0.13108 -0.342356,-0.21287 -0.565802,-0.21288 -0.223446,-1e-5 -0.444179,0.11275 -0.600246,0.28123 -0.156068,0.16848 -0.263694,0.38608 -0.345704,0.63672 -0.164018,0.50129 -0.228515,1.14847 -0.228515,1.85938 0,0.32765 0.05519,0.52023 0.08789,0.76757 0.0021,0.0146 0.0053,0.029 0.0098,0.043 l 0.433594,1.41211 z"
           id="path187212"
           sodipodi:nodetypes="cccssscccc" />
        <path
           style="color:#000000;fill:#26783f;stroke-width:0.795405;stroke-linecap:round;stroke-linejoin:round;-inkscape-stroke:none"
           d="m -25.328125,283.79687 -1.652344,1.04688 c -0.09782,0.0614 -0.144466,0.17926 -0.115234,0.29102 l 0.740234,2.80664 c 0.04786,0.18124 0.263811,0.25662 0.414063,0.14453 l 1.810547,-1.35157 c 0.05871,-0.0434 0.09688,-0.10914 0.105468,-0.18164 l 0.244141,-2.10742 -0.609735,-0.6867 z"
           id="path187596"
           sodipodi:nodetypes="cccccccccc" />
        <path
           id="path498629"
           style="fill:#1f6636;fill-opacity:1;stroke-width:3.00626;stroke-linecap:round;stroke-linejoin:round"
           d="m -92.978516,13.027344 c -0.235039,-0.0031 -0.469582,0.01904 -0.697265,0.06641 -0.728591,0.151559 -1.403083,0.516725 -2.052735,1.003906 l -6.244144,3.957032 a 1.0001006,1.0001006 0 0 0 -0.43554,1.099609 l 2.765622,10.492187 0.755859,0.04297 a 1.600933,1.600933 0 0 0 0,0.0078 c 1.147302,0.06501 2.285447,-0.734797 2.626953,-1.832032 l 3.189454,-10.28125 0.01367,-0.04492 0.02344,-0.05273 a 1.600933,1.600933 0 0 0 0.04297,-0.154297 c 0.385168,-1.437456 0.690403,-2.834676 0.873046,-4.171875 -0.28145,-0.0841 -0.571789,-0.129043 -0.861328,-0.132812 z"
           transform="matrix(0.26458334,0,0,0.26458334,0,280.06666)" />
        <path
           id="path498750"
           style="color:#000000;fill:#1f6636;fill-opacity:1;stroke-width:3.00626;stroke-linecap:round;stroke-linejoin:round;-inkscape-stroke:none"
           d="m -102.45313,10.740234 c -0.28835,-0.257268 -0.62673,-0.463911 -0.99415,-0.603515 h 1e-5 c -0.50788,1.248176 -0.93982,2.608408 -1.32421,4.042969 -0.36923,1.377864 -0.62819,2.718209 -0.76758,3.99414 -4.6e-4,0.02213 -4.6e-4,0.04428 0,0.06641 l -0.80469,8.31836 c -1e-5,0.0026 -1e-5,0.0052 0,0.0078 -0.0923,0.976797 0.46421,1.944334 1.28711,2.458985 l 5.578124,-4.31836 z"
           transform="matrix(0.26458334,0,0,0.26458334,0,280.06666)"
           sodipodi:nodetypes="csscccccccc" />
        <path
           style="color:#000000;fill:#349951;stroke-width:0.795405;stroke-linecap:round;stroke-linejoin:round;-inkscape-stroke:none"
           d="m -26.113281,281.66406 c -0.194357,0.12235 -0.35396,0.30451 -0.498047,0.52539 -0.288174,0.44176 -0.517177,1.05161 -0.701172,1.73828 -0.09234,0.34461 -0.15509,0.67962 -0.189453,0.99414 -10e-6,10e-4 -10e-6,0.003 0,0.004 l -0.212891,2.20899 c -0.0141,0.14921 0.09842,0.28034 0.248047,0.28906 l 1.326172,0.0762 c 0.121194,0.007 0.231503,-0.0696 0.267578,-0.18555 l 0.857422,-2.76172 c 0.0014,-0.003 0.0027,-0.007 0.0039,-0.01 0.183996,-0.68668 0.288452,-1.32881 0.259766,-1.85547 -0.01434,-0.26333 -0.06082,-0.49999 -0.167969,-0.70313 -0.107144,-0.20313 -0.291239,-0.36942 -0.523434,-0.43157 -0.232195,-0.0622 -0.475563,-0.011 -0.669919,0.11138 z"
           id="path187404"
           sodipodi:nodetypes="cssccccccccsscc" />
        <path
           style="color:#000000;fill:#e2f0fa;stroke-width:0.795405;stroke-linecap:round;stroke-linejoin:round;-inkscape-stroke:none"
           d="m -18.283203,285.33789 a 0.26460996,0.26460996 0 0 0 -0.265625,0.26367 v 9.79102 a 0.26460996,0.26460996 0 0 0 0.265625,0.26367 H -14.625 c 0.429281,0 0.792969,-0.3422 0.792969,-0.77148 v -9.28321 a 0.26460996,0.26460996 0 0 0 -0.263672,-0.26367 z"
           id="path502285" />
        <path
           id="path557543"
           style="color:#000000;fill:#c8dae5;fill-opacity:1;stroke-width:3.00626;stroke-linecap:round;stroke-linejoin:round;-inkscape-stroke:none"
           d="m -54.279297,29.692945 v 29.060961 c 1.151645,-0.400209 2,-1.472541 2,-2.748047 V 20.919922 c -0.0011,-0.549978 -0.446119,-0.995845 -0.996094,-0.998047 h -15.826171 c -0.553025,-0.0021 -1.002775,0.44502 -1.003907,0.998047 v 3.001953 h 10.055102 a 5.7710699,5.7710699 45 0 1 5.77107,5.77107 z"
           transform="matrix(0.26458334,0,0,0.26458334,0,280.06666)"
           sodipodi:nodetypes="ccscccccc" />
        <path
           style="color:#000000;fill:#e2f0fa;stroke-width:0.795405;stroke-linecap:round;stroke-linejoin:round;-inkscape-stroke:none"
           d="m -19.628906,282.57031 a 0.26460996,0.26460996 0 0 0 -0.238281,0.38086 l 1.345703,2.76758 a 0.26460996,0.26460996 0 0 0 0.238281,0.14844 h 4.1875 a 0.26460996,0.26460996 0 0 0 0.236328,-0.38086 l -1.345703,-2.76758 a 0.26460996,0.26460996 0 0 0 -0.236328,-0.14844 z"
           id="path502085" />
        <path
           style="color:#000000;fill:#70c2ef;stroke-width:0.795405;stroke-linecap:round;stroke-linejoin:round;-inkscape-stroke:none"
           d="m -16.15625,288.46484 c -0.183936,-0.0375 -0.3915,0.0116 -0.583984,0.13477 -0.279577,0.17896 -0.500086,0.45232 -0.572266,0.79883 -0.09038,0.4339 0.17317,0.766 0.353516,1 0.09017,0.117 0.165866,0.22018 0.199218,0.29101 0.05631,0.19866 -0.130107,0.30318 -0.244139,0.3418 -0.140269,0.0519 -0.337895,0.0797 -0.546875,0.11719 -0.20898,0.0375 -0.435034,0.0813 -0.638672,0.22265 -0.203638,0.14137 -0.350672,0.40225 -0.359375,0.72071 -4e-5,0.003 -4e-5,0.005 0,0.008 v 3.29297 c 5.18e-4,0.14617 0.119455,0.26423 0.265625,0.26367 H -14.625 c 0.429281,0 0.792969,-0.3422 0.792969,-0.77148 v -5.45508 c -6e-5,-0.0914 -0.04732,-0.17637 -0.125,-0.22461 -0.173532,-0.10768 -0.322241,-0.16712 -0.466797,-0.18555 -0.144557,-0.0184 -0.274752,0.0123 -0.363281,0.0449 -0.177059,0.0653 -0.187694,0.10934 -0.382813,0.0605 -0.187904,-0.047 -0.340292,-0.22718 -0.558594,-0.42188 -0.10915,-0.0973 -0.243798,-0.2008 -0.427734,-0.23828 z"
           id="path502677"
           sodipodi:nodetypes="ccssccccccccsscccccccc" />
        <path
           id="path526018"
           style="color:#000000;fill:#a3b9c9;fill-opacity:1;stroke-width:3.00626;stroke-linecap:round;stroke-linejoin:round;-inkscape-stroke:none"
           d="m -79.28125,19.921875 a 1.0001006,1.0001006 0 0 0 -0.996094,0.998047 v 9.77539 l 0.582032,-0.628906 a 1.7465543,1.7465543 0 0 0 0.01562,-0.05273 c 2.745661,-2.086677 3.439162,-5.478833 3.771485,-7.691406 0.132691,-0.87867 -0.232625,-1.786899 -0.869141,-2.400391 z"
           transform="matrix(0.26458334,0,0,0.26458334,0,280.06666)" />
        <path
           id="path520731"
           style="fill:#a3b9c9;fill-opacity:1;stroke-width:3.00626;stroke-linecap:round;stroke-linejoin:round"
           d="m -80.277344,25.666016 v 32.257812 a 1.0001006,1.0001006 0 0 0 0.0957,0.404297 c 6.02012,-2.263883 10.139805,-8.955781 10.142579,-16.443359 v -0.0078 c 7e-6,-0.0023 -4e-6,-0.004 0,-0.0078 7e-6,-0.0023 -4e-6,-0.004 0,-0.0078 -4e-6,-0.0023 7e-6,-0.004 0,-0.0078 v -0.0078 c -4e-6,-0.0023 7e-6,-0.004 0,-0.0078 a 1.7890229,1.7890229 0 0 0 0,-0.002 1.7890229,1.7890229 0 0 0 0,-0.002 1.7890229,1.7890229 0 0 0 0,-0.002 1.7890229,1.7890229 0 0 0 0,-0.002 1.7890229,1.7890229 0 0 0 0,-0.002 1.7890229,1.7890229 0 0 0 0,-0.002 1.7890229,1.7890229 0 0 0 0,-0.002 1.7890229,1.7890229 0 0 0 0,-0.002 1.7890229,1.7890229 0 0 0 0,-0.002 1.7890229,1.7890229 0 0 0 0,-0.002 1.7890229,1.7890229 0 0 0 0,-0.002 1.7890229,1.7890229 0 0 0 0,-0.002 1.7890229,1.7890229 0 0 0 0,-0.002 1.7890229,1.7890229 0 0 0 0,-0.002 1.7890229,1.7890229 0 0 0 0,-0.002 1.7890229,1.7890229 0 0 0 0,-0.002 1.7890229,1.7890229 0 0 0 0,-0.002 1.7890229,1.7890229 0 0 0 0,-0.002 1.7890229,1.7890229 0 0 0 0,-0.002 c -0.09574,-3.84805 -1.485572,-8.623276 -4.496094,-12.238281 -1.451535,-1.742973 -3.361336,-3.23244 -5.742188,-3.896484 z"
           transform="matrix(0.26458334,0,0,0.26458334,0,280.06666)" />
        <path
           id="path524720"
           style="fill:#a3b9c9;fill-opacity:1;stroke-width:3.00626;stroke-linecap:round;stroke-linejoin:round"
           d="m -79.414062,18.921875 -0.759766,1.5625 a 1.0001006,1.0001006 0 0 0 0.892578,1.439453 h 3.400391 c -0.01717,-1.245946 -0.964352,-2.450794 -2.197266,-2.701172 -0.437959,-0.08857 -0.880645,-0.197077 -1.335937,-0.300781 z"
           transform="matrix(0.26458334,0,0,0.26458334,0,280.06666)" />
        <path
           style="color:#000000;fill:#349951;stroke-width:0.795405;stroke-linecap:round;stroke-linejoin:round;-inkscape-stroke:none"
           d="m -21.835937,285.42187 c -0.376042,-0.005 -0.780763,0.10162 -1.25,0.40235 a 0.26460996,0.26460996 0 0 0 -0.0039,0.004 l -2.011718,1.3379 a 0.26460996,0.26460996 0 0 0 -0.06055,0.38476 l 1.599609,2.01367 a 0.26460996,0.26460996 0 0 0 0.402344,0.0156 l 1.736328,-1.87305 -0.05859,0.0469 c 0.677443,-0.40238 0.849716,-1.23914 0.941406,-1.84961 A 0.26460996,0.26460996 0 0 0 -20.75,285.60547 c -0.38105,-0.0771 -0.709896,-0.17847 -1.085937,-0.1836 z"
           id="path488316" />
        <path
           style="color:#000000;fill:#fca311;fill-opacity:1;stroke-width:0.795405;stroke-linecap:round;stroke-linejoin:round;-inkscape-stroke:none"
           d="m -26.697392,286.3496 c 0.46051,0.12334 0.898812,0.35243 1.166129,0.62699 0.267317,0.27456 0.371064,0.55458 0.253906,0.90235 l -2.769531,6.86328 c -0.146556,0.36331 -0.513289,0.56376 -1.013672,0.42968 -0.500379,-0.13407 -0.720749,-0.491 -0.666015,-0.8789 l 1.035156,-7.33203 c 0.07314,-0.35769 0.302226,-0.54659 0.670472,-0.65057 0.368246,-0.10397 0.863045,-0.0842 1.323555,0.0392 z"
           id="path182192"
           sodipodi:nodetypes="csccccccc" />
        <path
           id="path509443"
           style="fill:#ec7523;fill-opacity:1;stroke-width:3.00626;stroke-linecap:round;stroke-linejoin:round"
           d="m -96.884766,25.753906 c -0.895018,0.427167 -1.749054,0.960135 -2.548828,1.580078 -3.986516,3.090066 -6.888676,8.398791 -6.888676,14.535157 -5e-5,0.01512 -1.5e-4,0.03094 0,0.04492 2e-5,0.0023 -1e-5,0.004 0,0.0078 0.008,3.242545 0.7899,6.333276 2.16211,8.978516 l 8.623051,-21.373047 z"
           transform="matrix(0.26458334,0,0,0.26458334,0,280.06666)"
           sodipodi:nodetypes="cccscccc" />
        <path
           id="path505252"
           style="fill:#26783f;fill-opacity:1;stroke-width:3.00626;stroke-linecap:round;stroke-linejoin:round"
           d="m -94.595703,17.113281 c -1.526342,0.173557 -3.027634,0.664227 -4.505859,1.267566 -0.0052,0.0019 -0.01043,0.0039 -0.01563,0.0059 -1.042928,0.504453 -1.685028,1.727245 -1.513668,2.873047 0.30848,2.074851 0.960629,4.551285 2.566403,6.5625 0.127844,-0.116227 0.223396,-0.263593 0.277344,-0.427735 z"
           transform="matrix(0.26458334,0,0,0.26458334,0,280.06666)"
           sodipodi:nodetypes="ccccccc" />
        <path
           id="path503022"
           style="color:#000000;fill:#ec7523;fill-opacity:1;stroke-width:0.795405;stroke-linecap:round;stroke-linejoin:round;-inkscape-stroke:none"
           d="m -28.021545,286.31076 c -0.33831,0.0955 -0.55893,0.26316 -0.649058,0.56793 0.47387,-0.13331 1.031973,-0.10513 1.468184,0.009 0.436212,0.11441 0.874722,0.34396 1.142041,0.61852 0.267317,0.27456 0.370888,0.5545 0.253731,0.90227 l -2.734718,6.77788 c 0.233654,-0.0614 0.405135,-0.22226 0.494543,-0.4439 l 2.769341,-6.86315 c 0.117158,-0.34777 0.01357,-0.62771 -0.25373,-0.90227 -0.267319,-0.27456 -0.705829,-0.50411 -1.173168,-0.63027 -0.467339,-0.12616 -0.91258,-0.13852 -1.317166,-0.036 z"
           sodipodi:nodetypes="cccsccccccc" />
        <path
           id="path506628"
           style="color:#000000;fill:#e05e10;fill-opacity:1;stroke-width:3.00626;stroke-linecap:round;stroke-linejoin:round;-inkscape-stroke:none"
           d="m -100.00977,24.039062 c 0.61325,1.959208 1.679802,3.945777 3.595708,5.392579 l 0.607421,0.763671 0.269532,-0.667968 c 0.442802,-1.314407 0.05135,-2.372449 -0.958985,-3.410156 -0.836096,-0.858751 -2.115543,-1.600692 -3.513676,-2.078126 z"
           transform="matrix(0.26458334,0,0,0.26458334,0,280.06666)" />
        <path
           id="path515284"
           style="fill:#e05e10;fill-opacity:1;stroke-width:3.00626;stroke-linecap:round;stroke-linejoin:round"
           d="m -95.462889,29.283109 c 0.348651,-1.479403 -0.376555,-2.502758 -1.384863,-3.494516 -0.01294,-0.01129 -0.02402,-0.02392 -0.03711,-0.03516 -5.21e-4,2.49e-4 -0.0014,-2.49e-4 -0.002,0 l 1.43e-4,4.73e-4 c -0.893177,0.426434 -1.744643,0.959671 -2.542969,1.578125 0.349751,0.247146 0.664717,0.510949 0.933594,0.78711 1.010332,1.037707 1.401783,2.09575 0.958985,3.410156 l -7.261721,18 c 0.19636,0.468224 0.40811,0.926631 0.63867,1.371094 l 2.78907,-6.914063 z"
           transform="matrix(0.26458334,0,0,0.26458334,0,280.06666)"
           sodipodi:nodetypes="ccccccsccccc" />
        <path
           style="color:#000000;fill:#349951;stroke-width:0.795405;stroke-linecap:round;stroke-linejoin:round;-inkscape-stroke:none"
           d="m -22.89263,286.18549 c -0.184239,-0.34308 -0.466462,-0.68616 -0.898438,-0.93555 -0.793349,-0.32834 -1.469015,-0.21523 -2.232369,0.0958 -0.104264,0.0504 -0.163616,0.1628 -0.146485,0.27735 0.107781,0.72495 0.337374,1.54457 1.080078,1.99023 z"
           id="path488196"
           sodipodi:nodetypes="cccccc" />
        <path
           style="color:#000000;fill:#dc1c4b;stroke-width:0.795405;stroke-linecap:round;stroke-linejoin:round;-inkscape-stroke:none"
           d="m -24.515681,287.30714 c -0.535015,0.0254 -1.038841,-10e-4 -1.505987,0.36103 -0.934591,0.72443 -1.642277,2.003 -1.642277,3.47679 1.6e-4,0.002 3.37e-4,0.003 5.29e-4,0.005 -1.92e-4,0.002 -3.69e-4,0.003 -5.29e-4,0.005 0.0036,2.22939 1.495868,4.08812 3.400309,4.08812 0.302469,0 0.595903,-0.0695 0.874882,-0.17777 0.303359,0.10151 0.632592,0.17777 0.984436,0.17777 1.906747,0 3.400308,-1.86282 3.40031,-4.09588 v -5.3e-4 -5.2e-4 -5.3e-4 -5.3e-4 -5.3e-4 -5.3e-4 -5.3e-4 -5.3e-4 -5.3e-4 -5.3e-4 -5.3e-4 -5.3e-4 -5.3e-4 -5.2e-4 -5.3e-4 c -0.02255,-0.90627 -0.373791,-2.09958 -1.080038,-2.94763 -0.353124,-0.42403 -0.802937,-0.76211 -1.349788,-0.89607 -0.503607,-0.12336 -1.103647,0.18716 -1.71759,0.47407 -0.358692,-0.35869 -0.888355,-0.45948 -1.364257,-0.4625 z"
           id="path488838"
           sodipodi:nodetypes="cccccscsssssssssssssssscsccc" />
      </g>
      <path
         id="path17867"
         style="color:#000000;fill:#000000;stroke-width:3.00626;stroke-linecap:round;stroke-linejoin:round;-inkscape-stroke:none"
         d="m -52.279297,20.919918 c -6.35e-4,-0.0046 -0.0013,-0.0091 -0.002,-0.01367 -0.0013,-0.09607 -0.01642,-0.19145 -0.04492,-0.283203 -0.0031,-0.0092 -0.0064,-0.01828 -0.0098,-0.02734 -0.01337,-0.03802 -0.02902,-0.0752 -0.04687,-0.111328 L -57.365234,10.236328 V 7.9199219 c 3e-6,-1.6685102 -1.415436,-2.9980469 -3.085938,-2.9980469 h -11.654297 c -1.670502,0 -3.085941,1.3295367 -3.085937,2.9980469 v 2.3164061 l -3.603516,7.40625 c -0.240667,0.497265 -0.03252,1.095472 0.464844,1.335938 0.497758,0.241986 1.097405,0.03364 1.33789,-0.464844 l 2.804688,-5.765625 3.486328,7.173828 h -4.630859 c -0.553047,-0.0022 -1.002831,0.444996 -1.003907,0.998047 -0.0022,0.55534 0.448567,1.00608 1.003907,1.003906 h 5.226562 v 34.996094 h -9.175781 c -0.552286,0.0022 -0.998255,0.45162 -0.996094,1.003906 0.0011,0.550001 0.446097,0.995899 0.996094,0.998047 h 24.005859 c 1.62248,0 2.996094,-1.29354 2.996094,-2.916016 z m -61.992743,32.531253 c -0.34583,2.451061 1.20607,4.799491 3.60156,5.441406 2.39549,0.641839 4.91379,-0.614584 5.83984,-2.910156 l 1.34961,-3.34961 c 0.21011,-0.513464 -0.0379,-1.099825 -0.55273,-1.30664 -0.51128,-0.204906 -1.092,0.04222 -1.29883,0.552734 l -1.35938,3.351563 c -0.55389,1.373064 -2.02329,2.111772 -3.46093,1.726562 -1.43766,-0.385247 -2.33967,-1.758568 -2.13282,-3.224609 l 0.21289,-1.503906 c 0.7347,0.764674 1.70022,1.34664 2.80469,1.642578 0.53403,0.144108 1.08361,-0.17269 1.22656,-0.707032 0.1445,-0.532255 -0.1692,-1.081018 -0.70117,-1.226562 -1.79075,-0.479802 -2.91157,-1.987001 -2.80469,-3.447266 l 0.23633,-1.677734 c 0.73628,0.763685 1.70757,1.344546 2.8125,1.640625 0.53162,0.143259 1.07904,-0.170175 1.22461,-0.701172 0.14273,-0.533991 -0.17482,-1.082497 -0.70898,-1.224609 -1.84527,-0.494438 -2.97078,-2.079341 -2.7832,-3.580078 l 0.29882,-2.115235 c 0.73604,0.764176 1.70461,1.346771 2.8086,1.642578 0.53462,0.14398 1.08448,-0.173851 1.22656,-0.708984 0.14273,-0.533991 -0.17482,-1.082497 -0.70898,-1.224609 -1.81642,-0.486713 -2.93542,-2.030167 -2.79102,-3.509766 l 0.31055,-2.191406 c 0.73662,0.766625 1.70612,1.351987 2.8125,1.648437 0.53399,0.142731 1.0825,-0.174825 1.22461,-0.708984 0.14411,-0.534034 -0.17269,-1.083618 -0.70704,-1.226563 -1.84524,-0.4944 -2.97077,-2.071528 -2.7832,-3.572265 0.22138,-1.640946 0.46113,-3.299191 0.69355,-4.945309 0.27371,-1.359723 1.14523,-2.079132 2.53906,-2.472656 1.39383,-0.393487 3.25578,-0.312534 4.97461,0.175781 0.53428,0.153844 1.091457,-0.15765 1.240237,-0.693359 0.1488,-0.531782 -0.161604,-1.083517 -0.693357,-1.232422 -2.40259,-0.510628 -3.95336,-0.746695 -6.58985,0.0039 -0.21033,-2.502241 -0.11392,-5.782686 0.64844,-7.791015 0.25255,-0.771818 0.56252,-1.345261 0.86328,-1.669922 0.93748,-1.103322 2.75896,0.194432 2.46097,1.208984 -0.46017,1.561836 -0.84084,3.300204 -1.00781,4.785156 -0.0628,0.551195 0.33514,1.048141 0.88672,1.107422 0.54763,0.05818 1.03923,-0.337371 1.09961,-0.884765 0.52131,-3.240717 1.29448,-6.690394 3.056636,-9.4570316 0.443709,-0.6802016 0.894988,-1.1450925 1.269532,-1.3808594 0.83893,-0.4470663 1.381289,-0.1399217 1.683593,0.4511719 0.206476,0.3914456 0.362098,1.0191427 0.40625,1.8300781 -0.0237,2.408093 -0.376555,4.231747 -0.923828,6.386719 -0.14273,0.533993 0.174826,1.082499 0.708985,1.224609 0.533993,0.14273 1.082499,-0.174826 1.224609,-0.708984 l 0.367234,-1.470703 c 0.587488,-0.45544 1.244132,-0.506983 1.69336,-0.285157 0.394904,0.227906 0.569623,0.544991 0.597656,1.306641 0.01798,0.555592 0.485613,0.989888 1.041016,0.966797 0.552496,-0.0222 0.982109,-0.488558 0.958984,-1.041016 -0.04377,-1.189417 -0.550793,-2.354247 -1.601562,-2.960937 -0.78508,-0.400132 -1.492824,-0.571197 -2.251949,-0.328124 0.163659,-1.149674 0.230708,-2.226652 0.177735,-3.199219 -0.0542,-0.995263 -0.229793,-1.8904299 -0.634766,-2.6582031 -0.404954,-0.7677355 -1.100917,-1.3956972 -1.978515,-1.6308594 -1.880768,-0.4044269 -3.456153,0.9544694 -4.41377,2.406246 v 6e-6 c -0.56638,0.8682356 -1.07244,1.9089503 -1.5254,3.0722655 -0.62737,-0.76069 -1.47537,-1.05925 -2.42382,-1.1601561 -0.90855,3.78e-5 -1.74218,0.4257251 -2.33204,1.0625001 -0.58986,0.636775 -0.99668,1.458949 -1.30664,2.40625 -0.76997,2.823714 -1.11893,6.334685 -0.5957,9.501953 -0.7767,0.684096 -1.35367,1.596095 -1.58203,2.730469 z M -60.451169,6.9238281 c 0.634658,0 1.085938,0.4554702 1.085938,0.9960938 V 9.4628906 H -73.191406 V 7.9199219 c -4e-6,-0.5237292 0.421968,-0.9688402 1.02539,-0.9960938 z M -72.59375,11.462891 h 13.605469 l 4.113281,8.458984 h -13.599609 z m 3.609375,2.753906 c -0.387827,0.390056 -0.387827,1.0201 0,1.410156 0.390056,0.387827 1.0201,0.387827 1.410156,0 1.26227,-0.606556 2.289682,-0.482866 3.587891,0 0.39095,0.393034 1.027019,0.393034 1.417969,0 0.387827,-0.390056 0.387827,-1.0201 0,-1.410156 -1.490502,-1.387434 -4.856797,-1.494294 -6.416016,0 z m -16.298828,4.539062 c -0.740982,0.849219 -1.494119,1.858018 -2.160156,2.964844 -0.630924,-0.792063 -1.439135,-1.533034 -2.47461,-2.130859 -1.845861,-1.065714 -3.967258,-0.903993 -5.589843,-0.560547 -1.622586,0.343559 -2.847661,0.923828 -2.847657,0.923828 -0.393934,0.190111 -0.618619,0.614164 -0.554687,1.046875 0.329109,2.213637 0.95797,4.661482 2.667968,6.408203 -0.728329,0.359686 -1.434969,0.806893 -2.107421,1.328125 -3.532311,2.738003 -6.207031,7.570395 -6.207031,13.140625 1e-5,8.439912 5.644959,15.478516 12.851562,15.478516 1.14319,0 2.252232,-0.262779 3.30664,-0.671875 1.146554,0.38366 2.3909,0.671875 3.720704,0.671875 7.206602,0 12.851555,-7.038604 12.851562,-15.478516 v -0.002 -0.002 -0.002 -0.002 -0.002 -0.002 -0.002 -0.002 -0.002 -0.002 -0.002 -0.002 -0.002 -0.002 -0.002 -0.002 c -0.08534,-3.429657 -1.413515,-7.948426 -4.089844,-11.154297 -1.039328,-1.244968 -2.304954,-2.286906 -3.789062,-2.925781 1.355664,-1.650214 1.803887,-3.92732 2.070312,-5.701172 0.08031,-0.527632 -0.267837,-1.025356 -0.791015,-1.130859 -2.062989,-0.494063 -3.72343,-0.791386 -5.615235,-0.550782 0.08811,-0.106794 0.175708,-0.211684 0.263672,-0.3125 0.362651,-0.41594 0.319822,-1.047026 -0.0957,-1.410156 -0.51321,-0.360281 -1.032778,-0.307555 -1.410159,0.09645 z m -5.638672,2.570313 c 1.132087,0.653612 1.888414,1.485256 2.435547,2.390625 -0.166771,0.37577 -0.31985,0.758331 -0.455078,1.144531 -1.298338,-0.968785 -2.674445,-1.738663 -3.988282,-2.310547 -0.508008,-0.224652 -1.101753,0.0078 -1.322265,0.517578 -0.218103,0.505385 0.01323,1.09201 0.517578,1.3125 1.403604,0.610922 2.909685,1.493798 4.248047,2.59961 -0.006,0.03808 -0.01001,0.07714 -0.01563,0.115234 -0.978634,-0.47506 -2.00754,-0.735305 -3.058594,-0.685547 v 0.002 c -0.509564,0.02409 -1.018328,0.0958 -1.521484,0.212891 -1.559596,-1.114596 -2.068368,-3.106167 -2.464844,-5.166016 0.425367,-0.167811 0.619112,-0.296152 1.453125,-0.472656 1.457049,-0.352837 2.852353,-0.150414 4.17188,0.339797 z m 22.816406,0.597656 h 13.826172 v 2 h -4.236328 c -0.550001,0.0011 -0.995899,0.446097 -0.998047,0.996094 -0.0022,0.553047 0.444997,1.00283 0.998047,1.003906 h 4.236328 v 7.953125 c -0.53928,-0.141957 -1.171091,-0.09057 -1.609375,0.130861 -0.669199,0.246804 -0.709808,0.413108 -1.447266,0.228516 -0.710188,-0.177638 -1.286249,-0.859829 -2.111328,-1.595703 -1.263049,-1.128464 -2.499288,-1.094018 -3.822265,-0.390625 -1.056669,0.676384 -1.891256,1.709887 -2.164063,3.019531 -0.341593,1.639937 0.654315,2.894888 1.335938,3.779297 1.034253,1.217904 0.96806,1.643551 -0.169918,2.392578 -1.339238,0.331982 -2.626359,0.542256 -3.837891,0.925782 z m -14.453125,0.316406 c 0.7104,0.01134 1.63188,0.249508 2.517578,0.44336 -0.362389,1.730831 -0.801401,3.61208 -1.927734,4.484375 -1.692986,-0.158498 -3.58262,0.287296 -5.550781,1.220703 -0.02847,-0.02343 -0.05733,-0.04524 -0.08594,-0.06836 0.04408,-1.536395 0.691378,-3.325699 1.580078,-4.970703 1.106014,-0.753436 2.301171,-1.084096 3.466799,-1.109375 z m -9.623047,6.164063 c 1.408546,-0.0029 2.717937,0.485235 3.902344,1.662109 0.310455,0.30954 0.786317,0.380801 1.173828,0.175782 2.216527,-1.175131 4.038781,-1.358271 5.601563,-0.980469 1.562781,0.377953 2.915214,1.352286 4.052734,2.714843 2.272993,2.722734 3.542217,6.984967 3.617188,9.914063 -0.0079,7.546394 -4.962382,13.464844 -10.84375,13.464844 -1.180785,0 -2.336175,-0.238251 -3.365235,-0.611328 -0.24549,-0.08903 -0.516067,-0.07852 -0.753906,0.0293 -0.863218,0.392163 -1.853492,0.583984 -2.908203,0.583984 -5.886134,0 -10.851552,-5.925307 -10.851562,-13.480469 0,-4.922683 2.42276,-9.226764 5.433593,-11.560547 1.50542,-1.166891 3.141804,-1.832523 4.658203,-1.904297 0.09477,-0.0045 0.1893,-0.0076 0.283203,-0.0078 z m 31.398438,5.728513 c 0.620999,0.553852 1.46466,1.668859 2.96875,2.044922 1.268617,0.317103 2.22062,-0.140085 2.619141,-0.287109 0.356704,-0.182065 0.619751,0.02493 0.916015,0.08789 v 20.027343 c 0,0.494627 -0.409435,0.914063 -0.996094,0.914063 h -12.830078 v -2 h 4.238281 c 0.552287,0.0022 1.001754,-0.443807 1.003907,-0.996094 0.0022,-0.55534 -0.448567,-1.00608 -1.003907,-1.003906 h -4.238281 v -2 h 4.238281 c 0.553047,0.0022 1.002831,-0.444996 1.003907,-0.998047 -0.0022,-0.552287 -0.45162,-0.998256 -1.003907,-0.996094 h -4.238281 V 45.50195 c 0.02003,-0.734664 0.183241,-0.915048 0.494141,-1.130859 1.305577,-0.578849 2.769623,-0.71495 4.039062,-1.054688 1.897192,-0.508351 2.678654,-2.335012 2.037113,-4.015625 -0.793498,-1.184519 -2.110696,-2.152263 -1.941406,-3.625 0.156321,-0.750425 0.575641,-1.289249 1.283203,-1.742187 0.729346,-0.379946 0.803773,-0.205149 1.410153,0.199219 z m -36.072266,0.578128 c -0.136742,0.510328 0.168328,1.083633 0.703125,1.228515 0.534797,0.144882 1.087874,-0.175825 1.228516,-0.710937 0.140642,-0.535112 -0.142966,-1.082952 -0.710938,-1.220704 -0.567972,-0.137752 -1.083961,0.192798 -1.220703,0.703126 z m -2.707031,2.380859 c -0.134207,0.500866 0.167242,1.080543 0.701172,1.226562 0.53393,0.146019 1.088849,-0.173163 1.230469,-0.708984 0.14162,-0.535821 -0.172589,-1.09237 -0.712891,-1.222656 -0.540302,-0.130286 -1.084543,0.204212 -1.21875,0.705078 z m 3.863281,1.035156 c -0.148479,0.554131 0.169114,1.081604 0.703125,1.226563 0.534011,0.144959 1.086816,-0.173951 1.228516,-0.708985 0.1417,-0.535034 -0.142073,-1.084922 -0.710938,-1.222656 -0.568865,-0.137734 -1.072224,0.150947 -1.220703,0.705078 z"
         transform="matrix(0.26458334,0,0,0.26458334,0,280.06666)"
         sodipodi:nodetypes="ccccccssssccccccccccccccccccccccccccccccccccccccccccccccccccccccccccccccccccccccccssccsccscccccccsscccccccccccccccscccccsscssccccccccccccccccscccccccccscccccccccsccsccsccccccccccccccscccccsscccsccsssssssscccccccsccccccccsccccccczzzzzzzzzzzzzzz" />
    </g>
  </g>
</svg>
